<svg xmlns="http://www.w3.org/2000/svg" width="134" height="32" fill="none"><g clip-path="url(#logo-regular_svg__a)"><path fill="#191A1C" d="m54.216 22.54-6.266-9.424v9.422h-2.786V8.877h3.22l5.919 8.915V8.878h2.785V22.54zm4.531-4.643c0-2.773 2.28-4.885 5.1-4.885 2.802 0 5.048 2.06 5.048 4.833 0 2.809-2.28 4.902-5.082 4.902-2.82 0-5.066-2.041-5.066-4.849Zm2.785-.034c0 1.412 1.027 2.39 2.298 2.39 1.27 0 2.28-.977 2.28-2.39 0-1.396-1.027-2.374-2.298-2.374-1.27 0-2.28.978-2.28 2.374m14.02-4.642v2.67c-.365-.07-.748-.07-.87-.07-1.305 0-2.21.907-2.21 2.635v4.082h-2.663v-9.316h2.576v1.36h.034c.505-1.064 1.446-1.466 2.403-1.466.209 0 .539.053.73.105m7.843 9.317v-1.186h-.034c-.87 1.274-2.263 1.361-2.89 1.361-2.698 0-4.422-2.338-4.422-4.85 0-2.356 1.794-4.816 4.457-4.816.54 0 1.828.105 2.785 1.239h.035v-5.95h2.698v14.203h-2.63.001Zm0-4.675c0-1.396-1.026-2.356-2.298-2.356-1.27 0-2.296.96-2.296 2.356 0 1.412 1.026 2.39 2.297 2.39 1.27 0 2.299-.977 2.299-2.39zm48.723-3.184a1.82 1.82 0 0 0 1.327-.513 1.83 1.83 0 0 0 .411-2.025 1.83 1.83 0 0 0-1.023-.991 1.8 1.8 0 0 0-.715-.121c-.999 0-1.814.818-1.814 1.825s.815 1.825 1.814 1.825m0-3.31c.815 0 1.46.668 1.46 1.485s-.645 1.478-1.46 1.478c-.809 0-1.447-.661-1.447-1.478s.638-1.484 1.447-1.484zm-.279 1.778h.306l.38.75h.469l-.435-.846a.62.62 0 0 0 .36-.578c0-.334-.204-.668-.727-.668h-.774v2.091h.421zm.652-.667c0 .122-.075.278-.333.278h-.319V12.2h.319c.279 0 .333.157.333.28m-33.329.349c0-3.049-2.254-4.61-5.13-4.61h-5.333v14.38h2.969v-5.068h2.253c3.005 0 5.241-1.524 5.241-4.702m-2.988.073c0 1.341-1.208 1.855-2.382 1.855h-2.124V11.03h2.106c1.228 0 2.4.477 2.4 1.872m7.275 9.882c1.063 0 2.18-.368 2.914-1.415l.036.018V22.6h2.638v-6.078c0-2.646-1.777-3.949-4.214-3.949-2.052 0-4.068.992-4.397 3.086l2.51.57c.22-.828.879-1.342 1.758-1.342 1.027 0 1.54.588 1.54 1.212 0 .404-.238.68-.77.68h-.952c-1.906 0-4.306.66-4.306 3.012v.073c0 1.819 1.539 2.92 3.243 2.92m.824-2.094c-.604 0-1.19-.294-1.19-.992 0-.772.843-1.12 1.429-1.12h1.704v.22c0 .992-.678 1.892-1.943 1.892m10.811 2.13c2.675 0 3.976-1.58 3.976-3.25 0-2.184-1.661-2.875-3.477-3.119l-.553-.067c-.791-.114-1.156-.304-1.156-.819 0-.44.422-.808 1.118-.808.824 0 1.283.496 1.429 1.157l2.473-.623c-.2-1.103-1.318-2.737-3.865-2.737-2.07 0-3.866 1.358-3.866 3.14 0 2.074 1.469 2.757 3.169 3.047l.367.057c1.026.147 1.558.33 1.558.955 0 .367-.33.845-1.173.845-.953 0-1.503-.624-1.63-1.34l-2.493.66c.165 1.047 1.246 2.902 4.123 2.902m9.583 0c-2.877 0-3.958-1.854-4.124-2.902l2.493-.66c.128.716.678 1.34 1.631 1.34.843 0 1.172-.477 1.172-.846 0-.584-.467-.782-1.371-.925l-.554-.086c-1.7-.29-3.169-.973-3.169-3.047 0-1.78 1.796-3.14 3.866-3.14 2.548 0 3.665 1.634 3.867 2.736l-2.473.624c-.147-.66-.606-1.157-1.43-1.157-.696 0-1.118.367-1.118.808 0 .515.365.705 1.155.82l.366.043c1.888.222 3.664.883 3.664 3.141 0 1.671-1.301 3.25-3.975 3.25Z"></path><path fill="#00CFB6" d="M0 18.436a17.9 17.9 0 0 0 3.4 10.53l8.572-13.983 3.09 5.304-.849-3.946 3.646-6.184 5.895 10.13-.841-3.907.829-1.404 8.577 13.99a17.9 17.9 0 0 0 3.4-10.53C35.719 8.53 27.723.5 17.859.5 7.996.498 0 8.529 0 18.436"></path></g><defs><clipPath id="logo-regular_svg__a"><path fill="#fff" d="M0 0h134v30H0z"></path></clipPath></defs></svg>